<?xml version="1.0" encoding="utf-8"?>
<!-- Generator: Adobe Illustrator 23.0.2, SVG Export Plug-In . SVG Version: 6.00 Build 0)  -->
<svg version="1.1" id="Calque_1" xmlns="http://www.w3.org/2000/svg" xmlns:xlink="http://www.w3.org/1999/xlink" x="0px" y="0px"
	 viewBox="0 0 988.86 131.36" style="enable-background:new 0 0 988.86 131.36;" xml:space="preserve">
<style type="text/css">
	.st0{fill:#FFFFFF;}
</style>
<g>
	<g>
		<g>
			<path class="st0" d="M358.03,122.15v-14.02h4.75v14.05c0,3.24,1.54,4.85,4,4.85s4-1.57,4-4.75v-14.15h4.72v13.92
				c0,6.32-3.47,9.37-8.78,9.37C361.44,131.43,358.03,128.34,358.03,122.15z"/>
			<path class="st0" d="M379.81,108.13h4.36l8.78,13.36v-13.36h4.65v22.93h-4.06l-9.07-13.86v13.86h-4.65L379.81,108.13
				L379.81,108.13z"/>
			<path class="st0" d="M402.37,108.13h4.75v22.93h-4.75V108.13z"/>
			<path class="st0" d="M410.17,108.13h5.14l4.85,15.79l4.85-15.79h5.01l-7.73,23.06h-4.39L410.17,108.13z"/>
			<path class="st0" d="M432.89,108.13h14.78v4.29h-10.06v4.95h8.85v4.29h-8.85v5.11h10.19v4.29h-14.91V108.13z"/>
			<path class="st0" d="M451.56,108.13h8.62c2.65,0,4.78,0.75,6.23,2.19c1.24,1.24,1.93,3.05,1.93,5.31v0.13
				c0,3.47-1.74,5.67-4.26,6.78l4.88,8.52h-5.44l-4.23-7.53h-2.98v7.53h-4.75L451.56,108.13L451.56,108.13z M459.82,119.34
				c2.42,0,3.74-1.38,3.74-3.44v-0.03c0-2.29-1.41-3.44-3.83-3.44h-3.41v6.91C456.32,119.34,459.82,119.34,459.82,119.34z"/>
			<path class="st0" d="M470.45,127.98l2.82-3.51c1.54,1.34,3.41,2.59,5.7,2.59c1.83,0,2.95-0.92,2.95-2.26v-0.03
				c0-1.15-0.66-1.87-3.93-3.11c-4.06-1.57-6.59-3.11-6.59-7.04v-0.07c0-4,3.08-6.72,7.5-6.72c2.69,0,5.31,0.92,7.4,2.82l-2.65,3.6
				c-1.44-1.18-3.11-2.13-4.88-2.13c-1.64,0-2.65,0.82-2.65,2v0.03c0,1.31,0.79,1.93,4.36,3.41c4,1.57,6.16,3.28,6.16,6.85v0.07
				c0,4.26-3.24,6.88-7.7,6.88C476.02,131.36,472.98,130.34,470.45,127.98z"/>
			<path class="st0" d="M490.33,108.13h4.75v22.93h-4.75V108.13z"/>
			<path class="st0" d="M504.25,112.52h-5.77v-4.39h16.25v4.39h-5.77v18.54h-4.72v-18.54H504.25z"/>
			<path class="st0" d="M517.97,108.13h14.78v4.29h-10.06v4.95h8.85v4.29h-8.85v5.11h10.19v4.29h-14.91L517.97,108.13L517.97,108.13
				z M527.08,101.68l4,1.8l-4.09,3.05h-3.54L527.08,101.68z"/>
			<path class="st0" d="M544,108.13h7.63c5.14,0,8.39,2.98,8.39,7.86v0.06c0,5.27-3.77,7.93-8.58,8.03h-2.69v6.98H544V108.13z
				 M551.41,119.83c2.46,0,3.83-1.54,3.83-3.67v-0.03c0-2.39-1.37-3.7-3.9-3.7h-2.59v7.4C548.75,119.83,551.41,119.83,551.41,119.83
				z"/>
			<path class="st0" d="M567.68,108h4.52l8.22,23.06h-4.91l-1.7-4.98h-7.9l-1.67,4.98h-4.78L567.68,108z M572.37,121.89l-2.49-7.47
				l-2.52,7.47H572.37z"/>
			<path class="st0" d="M583.3,108.13h8.62c2.65,0,4.78,0.75,6.23,2.19c1.24,1.24,1.93,3.05,1.93,5.31v0.13
				c0,3.47-1.74,5.67-4.26,6.78l4.88,8.52h-5.44l-4.23-7.53h-2.98v7.53h-4.75V108.13z M591.56,119.34c2.42,0,3.73-1.38,3.73-3.44
				v-0.03c0-2.29-1.41-3.44-3.83-3.44h-3.41v6.91C588.05,119.34,591.56,119.34,591.56,119.34z"/>
			<path class="st0" d="M604.03,108.13h4.75v22.93h-4.75V108.13z"/>
			<path class="st0" d="M611.89,127.98l2.82-3.51c1.54,1.34,3.41,2.59,5.7,2.59c1.83,0,2.95-0.92,2.95-2.26v-0.03
				c0-1.15-0.66-1.87-3.93-3.11c-4.06-1.57-6.59-3.11-6.59-7.04v-0.07c0-4,3.08-6.72,7.5-6.72c2.69,0,5.31,0.92,7.4,2.82l-2.65,3.6
				c-1.44-1.18-3.11-2.13-4.88-2.13c-1.64,0-2.65,0.82-2.65,2v0.03c0,1.31,0.79,1.93,4.36,3.41c4,1.57,6.16,3.28,6.16,6.85v0.07
				c0,4.26-3.24,6.88-7.7,6.88C617.46,131.36,614.41,130.34,611.89,127.98z"/>
		</g>
		<g>
			<path class="st0" d="M733.09,27.22v29.03h17.67c10.11,0,15.34-6.06,15.34-14.52c0-8.33-5.23-14.51-15.34-14.51H733.09z
				 M775.51,41.61c0,13.33-9.4,22.97-24.52,22.97h-17.9v32.85h-9.06V18.89h26.96C766.11,18.89,775.51,28.41,775.51,41.61"/>
			<path class="st0" d="M833.6,30.91l-6.62,5.11c-4.07-6.3-10.58-9.87-17.56-9.87c-7.09,0-13.6,3.69-13.6,11.43
				c0,7.14,5.34,9.76,12.33,13.21l8.48,4.16c11.16,5.47,17.89,11.31,17.89,21.9c0,13.21-10.56,21.9-24.75,21.9
				c-12.2,0-22.31-6.55-28.24-16.9l6.75-5.12c4.64,7.26,11.5,13.45,21.38,13.45c9.06,0,15.46-5.12,15.46-13.09
				c0-7.26-5.24-10.12-12.8-13.8l-8.6-4.16c-8.94-4.4-17.31-10-17.31-21.06c0-12.49,10.69-20.47,23.13-20.47
				C820,17.58,828.84,23.17,833.6,30.91"/>
		</g>
		<polygon class="st0" points="850.63,18.89 850.63,97.43 896.07,97.43 896.07,89.1 859.69,89.1 859.69,18.89 		"/>
		<rect x="673.38" y="18.9" class="st0" width="5.06" height="78.5"/>
		<g>
			<g>
				<path class="st0" d="M152.66,31.13c-5.62-4.44-13.52-7.02-21.75-7.02c-21.13,0-37.07,16.16-37.07,37.6
					c0,21.36,15.94,37.47,37.07,37.47c10.2,0,17.13-3.59,21.56-7.28l-0.1,5.29h17.07V26.1h-16.78L152.66,31.13L152.66,31.13z
					 M131.98,83.85c-11.9,0-21.22-9.79-21.22-22.28c0-12.42,9.32-22.14,21.22-22.14c12.85,0,21.48,8.9,21.48,22.14
					C153.46,74.9,144.83,83.85,131.98,83.85z"/>
				<path class="st0" d="M234.79,68.66c0,0.07,0.27,6.75-4.05,11.27c-2.65,2.78-6.51,4.19-11.47,4.19c-4.95,0-8.81-1.4-11.46-4.17
					c-4.31-4.5-4.07-11.22-4.06-11.35V26.1h-16.91v42.1c0,20.64,10.91,31.11,32.43,31.11S251.7,88.84,251.7,68.2V26.1h-16.91
					L234.79,68.66z"/>
				<path class="st0" d="M307.62,24.11c-8.23,0-16.13,2.59-21.75,7.02V26.1h-16.91v104.97h16.91V91.68c4.37,3.8,11.3,7.5,21.75,7.5
					c21.13,0,37.07-16.11,37.07-37.47C344.69,40.27,328.75,24.11,307.62,24.11z M307.89,83.85c-10.99,0-22.81-6.93-22.81-22.14
					c0-15.31,11.82-22.28,22.81-22.28c11.57,0,20.29,9.58,20.29,22.28C328.18,74.54,319.64,83.85,307.89,83.85z"/>
				<path class="st0" d="M394.91,23.98c-11.02,0-17.04,4.41-20.03,7.74V2.02l-16.91,2.82v92.35h16.91V57.34
					c0-12.46,8.99-18.04,17.91-18.04c8.94,0,14.07,5.8,14.07,15.92v41.97h16.91V53.76C423.77,35.67,412.44,23.98,394.91,23.98z"/>
				<path class="st0" d="M450.42,0c-5.26,0-9.38,4.18-9.38,9.52c0,5.26,4.12,9.38,9.38,9.38c5.34,0,9.51-4.12,9.51-9.38
					C459.93,4.18,455.75,0,450.42,0z"/>
				<rect x="442.62" y="25.96" class="st0" width="16.91" height="71.22"/>
				<path class="st0" d="M516.25,23.98c-11.02,0-17.05,4.41-20.03,7.74V26.1h-16.91v71.09h16.91V57.34
					c0-12.46,8.99-18.04,17.91-18.04c8.94,0,14.06,5.8,14.06,15.92v41.97h16.91V53.76C545.1,35.67,533.78,23.98,516.25,23.98z"/>
				<path class="st0" d="M628.03,58.4c0-16.62-11.46-34.29-32.7-34.29c-21.81,0-38.26,16.11-38.26,37.46
					c0,22.14,16.11,37.6,39.19,37.6c20.29,0,28-7.08,28.32-7.38l0.41-0.39V76.7h-1.3c-0.38,0-0.6,0.14-0.91,0.33
					c-3.36,2.05-12.63,6.83-26.24,6.83c-12.21,0-20.69-6.52-22.95-17.53h54.46V58.4H628.03z M593.47,38.37
					c13.34,0,16.64,9.56,17.45,14.22h-36.63C575.36,48.65,579.47,38.37,593.47,38.37z"/>
			</g>
			<path class="st0" d="M33.89,4.85H0V97.4h33.89c30.01,0,50.18-18.62,50.18-46.34C84.07,22.99,64.37,4.85,33.89,4.85z M32.83,81.15
				H17.04V65.01h17.7c6.92,0,15.25-2.42,15.61-13.97c0-8.98-5.56-13.93-15.67-13.93H17.04V20.97h15.65c21.8,0,33.8,10.69,33.8,30.05
				C65.73,75.92,47.77,81.15,32.83,81.15z"/>
		</g>
	</g>
	<g>
		<g>
			<path class="st0" d="M984.67,47.31c-0.03-0.04-0.06-0.08-0.09-0.12C984.62,47.23,984.65,47.27,984.67,47.31l-0.19,0.14
				L984.67,47.31z"/>
			<path class="st0" d="M910.14,18.89v39.19c0,0,0,0,0,0.01c0,0,0,0,0,0.01v39.52h78.72V18.89H910.14z M986.83,19.9l-10.01,10.01
				c-5.06-4.86-11.41-8.39-18.49-10.01C958.33,19.9,986.83,19.9,986.83,19.9z M968.98,76.56c-0.17,0-0.33-0.02-0.49-0.02l-1.07-1.07
				l-4.19-12.56l5.71-4.15h18.72C987.22,68.64,979.02,76.56,968.98,76.56z M987.09,65.68c-1.5,7.39-5.16,14-10.28,19.18l-7.32-7.32
				C977.38,77.33,984.13,72.51,987.09,65.68z M961.74,46.4l7.1-7.1c5.88,0.05,11.11,2.82,14.51,7.1H961.74z M970.32,57.75
				l14.04-10.21l0,0l0.1-0.07c2.01,2.94,3.19,6.47,3.23,10.28H970.32z M984.59,47.19c0.03,0.04,0.06,0.08,0.09,0.12l-0.19,0.14
				l0.19-0.14C984.65,47.27,984.62,47.23,984.59,47.19z M985.27,46.88l-0.59,0.43c-0.21-0.3-0.43-0.59-0.65-0.88l-0.01-0.01
				c0.22,0.29,0.45,0.59,0.66,0.89L985.27,46.88l0.66-0.48h-1.02h-0.32c-3.38-4.62-8.73-7.7-14.81-8.05l7.03-7.03
				c4.98,5.04,8.57,11.43,10.14,18.58C986.48,48.84,985.92,47.83,985.27,46.88z M976.11,30.61l-7.68,7.69
				c-4.42,0.05-8.49,1.58-11.76,4.08l-7.1-22.49C959.87,19.91,969.23,24,976.11,30.61z M949.56,19.9l-8.48,26.51h-2.71l-15.64-15.64
				c6.92-6.72,16.36-10.87,26.77-10.87C949.52,19.9,949.54,19.9,949.56,19.9z M913.07,46.4l15.73,11.34h-17.65
				c0.09-10.2,4.22-19.46,10.87-26.27l14.92,14.93H913.07z M935.78,62.78l-4.25,12.73l-9.35,9.35
				c-6.68-6.75-10.85-15.95-11.03-26.11h19.03L935.78,62.78z M940.68,19.9c-7.16,1.64-13.57,5.22-18.66,10.16L911.86,19.9H940.68z
				 M911.14,20.6l10.17,10.17c-4.95,5.06-8.53,11.44-10.17,18.56V20.6z M911.14,66.84c1.66,7.19,5.3,13.64,10.33,18.73L911.14,95.9
				V66.84z M911.86,96.61l10.34-10.34c5.44,5.23,12.39,8.91,20.12,10.34H911.86z M927.36,89.23l21.86-15.97
				c-9.78,0.11-18.17,6.08-21.79,14.54l-0.4,1.2c-1.45-1.05-2.83-2.2-4.12-3.44l7.92-7.92l-1.73,5.18
				c4.52-6.39,11.98-10.58,20.41-10.58c2.54,0,4.98,0.38,7.29,1.09c-4.58-3.6-7.53-9.16-7.53-15.4c0-6.1,2.82-11.53,7.22-15.14
				l0.12,0.38l0,0l0.13,0.42c2.93-2.42,6.62-3.96,10.65-4.24l-7.05,7.05h-2.4l-0.88-2.81c-4.14,3.42-6.78,8.58-6.78,14.33
				c0,9.59,7.33,17.49,16.7,18.5l1.09,1.09c-1.39-0.07-2.75-0.27-4.05-0.61c2.26,1.61,4.24,3.58,5.85,5.84l-1.71-5.12l-0.01-0.03
				l7.97,7.97c-1.3,1.25-2.69,2.4-4.15,3.46l-0.48-1.44c-3.65-8.31-11.92-14.15-21.56-14.31l21.65,16.02
				c-6.24,4.39-13.85,6.98-22.05,6.98C941.25,96.27,933.62,93.65,927.36,89.23z M956.68,96.61c7.73-1.43,14.68-5.11,20.12-10.34
				l10.34,10.34H956.68z M987.86,95.9l-10.33-10.34c5.03-5.09,8.68-11.53,10.33-18.73V95.9z M987.86,49.32
				c-1.66-7.19-5.3-13.63-10.32-18.71l10.32-10.32V49.32z"/>
		</g>
	</g>
</g>
</svg>
